<?xml version="1.0" encoding="UTF-8" standalone="no"?>
<!-- Created with Inkscape (http://www.inkscape.org/) -->

<svg
   xmlns:dc="http://purl.org/dc/elements/1.1/"
   xmlns:cc="http://creativecommons.org/ns#"
   xmlns:rdf="http://www.w3.org/1999/02/22-rdf-syntax-ns#"
   xmlns:svg="http://www.w3.org/2000/svg"
   xmlns="http://www.w3.org/2000/svg"
   xmlns:sodipodi="http://sodipodi.sourceforge.net/DTD/sodipodi-0.dtd"
   xmlns:inkscape="http://www.inkscape.org/namespaces/inkscape"
   width="48pt"
   height="48pt"
   viewBox="0 0 16.933334 16.933333"
   version="1.1"
   id="svg979"
   inkscape:version="0.92.4 (5da689c313, 2019-01-14)"
   sodipodi:docname="21 - Beauty Mirror.svg"
   inkscape:export-filename="E:\TR Design Studio Creative\Project Design\TR Creative Design\Icon Design\Project Hiring\Icon Icons\Project - 001\002 - Beauty And Fashion\Send\Line\21 - Beauty Mirror.png"
   inkscape:export-xdpi="768"
   inkscape:export-ydpi="768">
  <defs
     id="defs973" />
  <sodipodi:namedview
     id="base"
     pagecolor="#ffffff"
     bordercolor="#666666"
     borderopacity="1.0"
     inkscape:pageopacity="0.0"
     inkscape:pageshadow="2"
     inkscape:zoom="8.546875"
     inkscape:cx="12.987203"
     inkscape:cy="32"
     inkscape:document-units="pt"
     inkscape:current-layer="layer1"
     showgrid="false"
     units="pt"
     inkscape:window-width="1366"
     inkscape:window-height="716"
     inkscape:window-x="-8"
     inkscape:window-y="-8"
     inkscape:window-maximized="1"
     inkscape:snap-bbox="true"
     inkscape:bbox-nodes="true"
     inkscape:snap-nodes="false"
     showguides="false">
    <inkscape:grid
       type="xygrid"
       id="grid1526" />
    <sodipodi:guide
       position="0.97013909,15.963209"
       orientation="56.666615,0"
       id="guide1528"
       inkscape:locked="false" />
    <sodipodi:guide
       position="0.97013909,0.97016731"
       orientation="0,56.666667"
       id="guide1530"
       inkscape:locked="false" />
    <sodipodi:guide
       position="15.963195,0.97016731"
       orientation="-56.666615,0"
       id="guide1532"
       inkscape:locked="false" />
    <sodipodi:guide
       position="15.963195,15.963209"
       orientation="0,-56.666667"
       id="guide1534"
       inkscape:locked="false" />
  </sodipodi:namedview>
  <metadata
     id="metadata976">
    <rdf:RDF>
      <cc:Work
         rdf:about="">
        <dc:format>image/svg+xml</dc:format>
        <dc:type
           rdf:resource="http://purl.org/dc/dcmitype/StillImage" />
        <dc:title></dc:title>
      </cc:Work>
    </rdf:RDF>
  </metadata>
  <g
     inkscape:label="Layer 1"
     inkscape:groupmode="layer"
     id="layer1"
     transform="translate(0,-280.06668)">
    <path
       style="color:#000000;font-style:normal;font-variant:normal;font-weight:normal;font-stretch:normal;font-size:medium;line-height:normal;font-family:sans-serif;font-variant-ligatures:normal;font-variant-position:normal;font-variant-caps:normal;font-variant-numeric:normal;font-variant-alternates:normal;font-feature-settings:normal;text-indent:0;text-align:start;text-decoration:none;text-decoration-line:none;text-decoration-style:solid;text-decoration-color:#000000;letter-spacing:normal;word-spacing:normal;text-transform:none;writing-mode:lr-tb;direction:ltr;text-orientation:mixed;dominant-baseline:auto;baseline-shift:baseline;text-anchor:start;white-space:normal;shape-padding:0;clip-rule:nonzero;display:inline;overflow:visible;visibility:visible;opacity:1;isolation:auto;mix-blend-mode:normal;color-interpolation:sRGB;color-interpolation-filters:linearRGB;solid-color:#000000;solid-opacity:1;vector-effect:none;fill:#000000;fill-opacity:1;fill-rule:nonzero;stroke:none;stroke-width:0.52916658;stroke-linecap:round;stroke-linejoin:round;stroke-miterlimit:1.5;stroke-dasharray:none;stroke-dashoffset:0;stroke-opacity:1;paint-order:markers fill stroke;color-rendering:auto;image-rendering:auto;shape-rendering:auto;text-rendering:auto;enable-background:accumulate"
       d="m 8.466667,281.0368 c -2.5782415,0 -4.6746192,2.09637 -4.6746192,4.67462 0,2.13037 1.4330969,3.92792 3.3848954,4.48948 v 0.67068 H 5.6246144 c -0.2043987,0 -0.3803679,0.13668 -0.3803679,0.38162 v 0.90621 c -0.085793,6e-5 -0.1681272,0.0342 -0.2285985,0.0951 0,0 -0.1218368,0.12654 -0.2216712,0.32622 -0.099834,0.19966 -0.1945929,0.49286 -0.1945923,0.86904 6e-7,0.25486 0.044636,0.46885 0.1039083,0.64487 H 4.2750645 a 0.3224632,0.3224632 0 0 0 -0.3211715,0.32372 c 0,0.32244 -0.012706,0.66405 0.095093,0.98745 0.053899,0.16169 0.1470568,0.32597 0.3003898,0.44523 0.153333,0.1193 0.3562282,0.17886 0.5711812,0.17886 h 7.092851 c 0.214953,0 0.417848,-0.0596 0.571181,-0.17886 0.153333,-0.11931 0.245861,-0.28354 0.29976,-0.44523 0.107799,-0.3234 0.09761,-0.66501 0.09761,-0.98745 a 0.3224632,0.3224632 0 0 0 -0.32306,-0.32373 h -0.366513 l -0.278978,-1.96294 v -0.93831 c -6.13e-4,-0.1772 -0.143968,-0.32118 -0.321172,-0.3218 h -0.969182 c -0.01031,-6.5e-4 -0.02055,-6.5e-4 -0.03086,0 -0.165022,0.0164 -0.290554,0.15594 -0.290314,0.3218 v 0.93831 l -0.278978,1.96294 H 9.7570203 v -3.89373 c 1.9517987,-0.56156 3.3842657,-2.35911 3.3842657,-4.48948 0,-2.57825 -2.096378,-4.67462 -4.674619,-4.67462 z m 0,0.64549 c 2.229732,0 4.032276,1.79939 4.032276,4.02913 0,2.22972 -1.802544,4.02976 -4.032276,4.02976 -2.2297323,0 -4.0291277,-1.80004 -4.0291277,-4.02976 0,-2.22974 1.7993954,-4.02913 4.0291277,-4.02913 z m 0,0.48302 c -1.9549947,0 -3.5461158,1.59111 -3.5461109,3.54611 a 0.32251031,0.32251031 0 0 0 0.6448618,0 c -3.7e-6,-1.6065 1.2947634,-2.90125 2.9012491,-2.90125 a 0.32251221,0.32251221 0 0 0 0,-0.64486 z m -0.9735902,1.609 a 0.3224632,0.3224632 0 0 0 -0.2210416,0.0976 l -0.6448619,0.64487 a 0.32313986,0.32313986 0 1 0 0.456567,0.45719 l 0.645492,-0.64548 A 0.3224632,0.3224632 0 0 0 7.4930768,283.7743 Z m 1.2903535,0 a 0.3224632,0.3224632 0 0 0 -0.2216712,0.0976 l -1.6108954,1.61153 a 0.3224632,0.3224632 0 1 0 0.4546779,0.45657 l 1.6108955,-1.61152 A 0.3224632,0.3224632 0 0 0 8.7834303,283.7743 Z m -0.9616251,6.56198 c 0.2114108,0.0294 0.4254782,0.0497 0.6448618,0.0497 0.2193064,0 0.4335224,-0.0205 0.644862,-0.0497 v 3.75834 H 8.6864493 c 0.059272,-0.17602 0.1039082,-0.39002 0.1039082,-0.64487 8e-7,-0.37618 -0.095386,-0.66938 -0.1952219,-0.86905 -0.099834,-0.19967 -0.2210416,-0.32621 -0.2210412,-0.32621 -0.060471,-0.0608 -0.1428057,-0.0949 -0.2285987,-0.0951 v -0.96602 c -4.838e-4,-0.17828 -0.1454536,-0.32253 -0.3236905,-0.32184 z m -1.9352157,1.18077 h 1.6140441 v 0.64235 H 5.8865895 Z m 5.1601545,0 h 0.321172 v 0.32117 h -0.321172 z m -0.04282,0.96604 h 0.407447 l 0.229858,1.61153 h -0.867792 z m -5.5934214,0.32117 H 7.976723 c 0.016547,0.0245 0.015271,0.0141 0.040304,0.0642 0.061382,0.12276 0.1284691,0.31255 0.1284685,0.58126 -4e-7,0.2687 -0.067087,0.4604 -0.1284685,0.58315 -0.015287,0.0306 -0.024312,0.0413 -0.036526,0.0617 H 5.4067213 c -0.012213,-0.0205 -0.021238,-0.0312 -0.036525,-0.0617 -0.06138,-0.12275 -0.1259489,-0.31445 -0.1259496,-0.58315 -3e-7,-0.26871 0.064568,-0.4585 0.1259496,-0.58126 0.025033,-0.0501 0.023756,-0.0397 0.040303,-0.0642 z m 0.7664032,0.3237 a 0.32317651,0.32317651 0 0 0 0.033377,0.64548 h 0.9666633 a 0.32274533,0.32274533 0 1 0 0,-0.64548 H 6.2102799 a 0.3224632,0.3224632 0 0 0 -0.033377,0 z m -1.551699,1.61152 h 7.6854452 c -0.0083,0.16821 -0.0063,0.36709 -0.03778,0.4616 -0.02671,0.0801 -0.05572,0.11857 -0.08376,0.14043 -0.02804,0.0218 -0.06822,0.0428 -0.1757,0.0428 H 4.9205561 c -0.1074777,0 -0.1457759,-0.021 -0.1738103,-0.0428 -0.028036,-0.0218 -0.056418,-0.0603 -0.083127,-0.14043 -0.031498,-0.0944 -0.030073,-0.29339 -0.038415,-0.4616 z"
       id="path1378"
       inkscape:connector-curvature="0" />
  </g>
</svg>
