<?xml version="1.0" ?><svg data-name="Layer 2" id="Layer_2" viewBox="0 0 272 272" xmlns="http://www.w3.org/2000/svg"><defs><style>.cls-1{fill:#564c4d;}</style></defs><title/><path class="cls-1" d="M219,101.44v8.21c21.31,5.49,37,24.16,37,46.35s-15.69,40.86-37,46.35v8.21c25.74-5.72,45-28,45-54.56S244.74,107.15,219,101.44Z"/><polygon class="cls-1" points="105 198 32.04 198 16.89 54 127.11 54 123.96 84 132 84 136 46 8 46 24.84 206 105 206 105 198"/><path class="cls-1" d="M105,84V224a8,8,0,0,0,8,8h98a8,8,0,0,0,8-8V84ZM211,224H113V92h98Z"/><path class="cls-1" d="M219,126v8.84a23.87,23.87,0,0,1,0,42.37V186c12.24-4.9,20.87-16.51,20.87-30S231.24,130.88,219,126Z"/></svg>